<?xml version="1.0" encoding="utf-8"?>
<!-- Generator: Adobe Illustrator 23.0.2, SVG Export Plug-In . SVG Version: 6.00 Build 0)  -->
<svg version="1.1" id="svg_x5F_fill_x5F_1" xmlns="http://www.w3.org/2000/svg" xmlns:xlink="http://www.w3.org/1999/xlink" x="0px"
	 y="0px" viewBox="0 0 1300 1000" style="enable-background:new 0 0 1300 1000;" xml:space="preserve">
<style type="text/css">
	.st0{fill:#FF0000;}
	.st1{fill:none;}
	.st2{clip-path:url(#SVGID_2_);}
	.st3{clip-path:url(#SVGID_4_);}
	.st4{fill:#FFFFFF;}
	.st5{clip-path:url(#SVGID_6_);}
	.st6{clip-path:url(#SVGID_8_);}
	.st7{clip-path:url(#SVGID_10_);}
	.st8{fill-rule:evenodd;clip-rule:evenodd;fill:#FF0000;}
	.st9{clip-path:url(#SVGID_12_);fill-rule:evenodd;clip-rule:evenodd;fill:#FFFFFF;}
	.st10{clip-path:url(#SVGID_14_);fill:#FFFFFF;}
</style>
<g>
	<defs>
		<rect id="SVGID_3_" width="1300" height="1000"/>
	</defs>
	<clipPath id="SVGID_2_">
		<use xlink:href="#SVGID_3_"  style="overflow:visible;"/>
	</clipPath>
	<g class="st2">
		<path class="st4" d="M850,560c-66.3,0-120,53.7-120,120s53.7,120,120,120s120-53.7,120-120S916.3,560,850,560z M910,700h-40v40
			c0,11-9,20-20,20s-20-9-20-20v-40h-40c-11,0-20-9-20-20s9-20,20-20h40v-40c0-11,9-20,20-20s20,9,20,20v40h40c11,0,20,9,20,20
			S921,700,910,700z"/>
		<path class="st4" d="M690,680c0-6.7,0.4-13.4,1.2-20H430c-11,0-20-9-20-20V500l25.9-25.9c7.8-7.8,20.5-7.8,28.3,0l51.7,51.7
			c7.8,7.8,20.5,7.8,28.3,0l131.7-131.7c7.8-7.8,20.5-7.8,28.3,0L830,520v1.2c6.6-0.8,13.3-1.2,20-1.2s13.4,0.4,20,1.2V280
			c0-22.1-17.9-40-40-40H410c-22.1,0-40,17.9-40,40v380c0,22.1,17.9,40,40,40h281.2C690.4,693.4,690,686.7,690,680z M510,300
			c33.1,0,60,26.9,60,60s-26.9,60-60,60s-60-26.9-60-60S476.9,300,510,300z"/>
	</g>
</g>
</svg>
