<?xml version="1.0" encoding="utf-8"?>
<!-- Generator: Adobe Illustrator 23.0.2, SVG Export Plug-In . SVG Version: 6.00 Build 0)  -->
<svg version="1.1" id="svg_x5F_fill_x5F_1" xmlns="http://www.w3.org/2000/svg" xmlns:xlink="http://www.w3.org/1999/xlink" x="0px"
	 y="0px" viewBox="0 0 1000 1000" style="enable-background:new 0 0 1000 1000;" xml:space="preserve">
<style type="text/css">
	.st0{fill:#FF0000;}
	.st1{fill:none;}
	.st2{clip-path:url(#SVGID_2_);}
	.st3{fill:#FFFFFF;}
	.st4{clip-path:url(#SVGID_4_);}
	.st5{clip-path:url(#SVGID_6_);}
	.st6{clip-path:url(#SVGID_8_);}
	.st7{clip-path:url(#SVGID_10_);}
	.st8{clip-path:url(#SVGID_12_);}
	.st9{fill-rule:evenodd;clip-rule:evenodd;fill:#FF0000;}
	.st10{clip-path:url(#SVGID_14_);fill-rule:evenodd;clip-rule:evenodd;fill:#FFFFFF;}
	.st11{clip-path:url(#SVGID_16_);fill:#FFFFFF;}
</style>
<g>
	<defs>
		<rect id="SVGID_15_" width="1000" height="1000"/>
	</defs>
	<clipPath id="SVGID_2_">
		<use xlink:href="#SVGID_15_"  style="overflow:visible;"/>
	</clipPath>
	<path style="clip-path:url(#SVGID_2_);fill:#FFFFFF;" d="M832,536.8l-152.6,40.9c-2.1,0.6-4.4,0.3-6.3-0.8l0,0
		c-6.4-3.7-5.1-13.3,2-15.2l15.5-4.2c10.5-2.8,17.2-13.3,14.8-23.9c-2.6-11.1-13.8-17.8-24.7-14.9L631,532c-15.5,4.2-32.1,2-46-6.1
		l0,0c-20-11.5-20-40.4,0-52l0,0c13.9-8,30.5-10.2,46-6.1l49.7,13.3c1.7,0.5,3.5,0.7,5.2,0.7c9,0,17.2-6.1,19.4-15.4
		c2.5-10.6-4.2-21.2-14.7-24l-15.6-4.2c-7.1-1.9-8.4-11.5-2-15.2l0,0c1.9-1.1,4.2-1.4,6.3-0.8L832,463.2c1.7,0.5,3.5,0.7,5.2,0.7
		c8.8,0,16.9-5.9,19.3-14.8c2.9-10.7-3.5-21.6-14.1-24.5l-70.6-18.9c-17.2-4.6-20.3-27.7-4.8-36.6l72.3-41.7
		c9.6-5.5,12.8-17.8,7.3-27.3c-5.5-9.6-17.8-12.8-27.3-7.3l-72.3,41.7c-15.4,8.9-33.9-5.3-29.3-22.5l18.9-70.6
		c2.9-10.7-3.5-21.6-14.1-24.5c-10.7-2.9-21.6,3.5-24.5,14.1l-40.9,152.6c-0.6,2.1-2,3.9-3.9,5l0,0c-6.4,3.7-14.1-2.2-12.1-9.3
		l4.3-16c2.9-10.7-3.5-21.6-14.1-24.5c-10.7-2.9-21.6,3.5-24.5,14.1l-13.3,49.7c-4.2,15.5-14.3,28.8-28.2,36.8l0,0
		c-20,11.5-45-2.9-45-26v0c0-16.1,6.4-31.5,17.8-42.9l36.4-36.4c8-8,7.8-21-0.5-28.8c-7.9-7.4-20.4-6.8-28.1,0.8l-11.4,11.4
		c-5.2,5.2-14.1,1.5-14.1-5.9v0c0-2.2,0.9-4.3,2.4-5.9l111.7-111.7c8-8,7.8-21-0.5-28.8c-7.9-7.4-20.4-6.8-28.1,0.8l-51.4,51.4
		c-12.6,12.6-34.1,3.7-34.1-14.1v-83c0-10.8-8.4-20.1-19.3-20.5c-11.4-0.4-20.7,8.7-20.7,20v83.4c0,17.8-21.5,26.7-34.1,14.1
		l-51.4-51.4c-7.7-7.7-20.2-8.2-28.1-0.8c-8.3,7.8-8.5,20.8-0.5,28.8l111.7,111.7c1.6,1.6,2.4,3.7,2.4,5.9v0
		c0,7.4-8.9,11.1-14.1,5.9l-11.4-11.4c-7.7-7.7-20.2-8.2-28.1-0.8c-8.3,7.8-8.5,20.8-0.5,28.8l36.4,36.4
		c11.4,11.4,17.8,26.8,17.8,42.9v0c0,23.1-25,37.5-45,26l0,0c-13.9-8-24.1-21.3-28.2-36.8l-13.3-49.7c-2.9-10.7-13.8-17-24.5-14.1
		c-10.7,2.9-17,13.8-14.1,24.5l4.3,16c1.9,7.1-5.8,13-12.1,9.3l0,0c-1.9-1.1-3.3-2.9-3.9-5l-40.9-152.6c-2.9-10.7-13.8-17-24.5-14.1
		c-10.7,2.9-17,13.8-14.1,24.5l18.9,70.6c4.6,17.2-13.9,31.4-29.3,22.5l-72.3-41.7c-9.6-5.5-21.8-2.2-27.3,7.3s-2.2,21.8,7.3,27.3
		l72.3,41.7c15.4,8.9,12.4,32-4.8,36.6l-70.6,18.9c-10.7,2.9-17,13.8-14.1,24.5c2.4,8.9,10.5,14.8,19.3,14.8c1.7,0,3.5-0.2,5.2-0.7
		l152.6-40.9c2.1-0.6,4.4-0.3,6.3,0.8l0,0c6.4,3.7,5.1,13.3-2,15.2l-15.6,4.2c-10.5,2.8-17.2,13.4-14.7,24
		c2.2,9.2,10.4,15.4,19.4,15.4c1.7,0,3.5-0.2,5.2-0.7L369,468c15.5-4.2,32.1-2,46,6.1l0,0c20,11.5,20,40.4,0,52l0,0
		c-13.9,8-30.5,10.2-46,6.1l-49.7-13.3c-10.7-2.9-21.6,3.5-24.5,14.1c-2.9,10.7,3.5,21.6,14.1,24.5l16,4.3c7.1,1.9,8.4,11.5,2,15.2
		l0,0c-1.9,1.1-4.2,1.4-6.3,0.8L168,536.8c-10.7-2.9-21.6,3.5-24.5,14.1c-2.9,10.7,3.5,21.6,14.1,24.5l70.6,18.9
		c17.2,4.6,20.3,27.7,4.8,36.6l-72.3,41.7c-9.6,5.5-12.8,17.8-7.3,27.3c3.7,6.4,10.4,10,17.3,10c3.4,0,6.8-0.9,10-2.7l72.3-41.7
		c15.4-8.9,33.9,5.3,29.3,22.5l-18.9,70.6c-2.9,10.7,3.5,21.6,14.1,24.5c1.7,0.5,3.5,0.7,5.2,0.7c8.8,0,16.9-5.9,19.3-14.8
		l40.9-152.6c0.6-2.1,2-3.9,3.9-5l0,0c6.4-3.7,14.1,2.2,12.1,9.3l-4.2,15.5c-2.9,10.8,3.5,22.3,14.4,25.1c1.6,0.4,3.2,0.6,4.8,0.6
		c8.8,0,16.9-5.9,19.3-14.8l13.3-49.7c4.2-15.5,14.3-28.8,28.2-36.8l0,0c20-11.5,45,2.9,45,26v0c0,16.1-6.4,31.5-17.8,42.9
		l-36.4,36.4c-8,8-7.8,21,0.5,28.8c7.9,7.4,20.4,6.8,28.1-0.8l11.4-11.4c5.2-5.2,14.1-1.5,14.1,5.9l0,0c0,2.2-0.9,4.3-2.4,5.9
		L365.9,805.9c-8,8-7.8,21,0.5,28.8c7.9,7.4,20.4,6.8,28.1-0.8l51.4-51.4c12.6-12.6,34.1-3.7,34.1,14.1v83
		c0,10.8,8.4,20.1,19.3,20.5c11.4,0.4,20.7-8.7,20.7-20v-83.4c0-17.8,21.5-26.7,34.1-14.1l51.7,51.7c3.9,3.9,9,5.9,14.1,5.9
		s10.2-2,14.1-5.9c7.8-7.8,7.8-20.5,0-28.3L522.4,694.1c-1.6-1.6-2.4-3.7-2.4-5.9l0,0c0-7.4,8.9-11.1,14.1-5.9l11.7,11.7
		c3.9,3.9,9,5.9,14.1,5.9s10.2-2,14.1-5.9c7.8-7.8,7.8-20.5,0-28.3l-36.4-36.4c-11.4-11.4-17.8-26.8-17.8-42.9v0
		c0-23.1,25-37.5,45-26l0,0c13.9,8,24.1,21.3,28.2,36.8l13.3,49.7c2.4,8.9,10.5,14.8,19.3,14.8c1.6,0,3.3-0.2,4.9-0.6
		c10.8-2.7,17.2-14.3,14.3-25.1l-4.2-15.5c-1.9-7.1,5.8-13,12.1-9.3l0,0c1.9,1.1,3.3,2.9,3.9,5l40.9,152.6
		c2.4,8.9,10.5,14.8,19.3,14.8c1.7,0,3.5-0.2,5.2-0.7c10.7-2.9,17-13.8,14.1-24.5l-18.9-70.6c-4.6-17.2,13.9-31.4,29.3-22.5
		l72.3,41.7c3.2,1.8,6.6,2.7,10,2.7c6.9,0,13.6-3.6,17.3-10c5.5-9.6,2.2-21.8-7.3-27.3L766.8,631c-15.4-8.9-12.4-32,4.8-36.6
		l70.6-18.9c10.7-2.9,17-13.8,14.1-24.5C853.6,540.2,842.6,533.9,832,536.8z"/>
</g>
</svg>
