<?xml version="1.0" encoding="utf-8"?>
<!-- Generator: Adobe Illustrator 23.0.2, SVG Export Plug-In . SVG Version: 6.00 Build 0)  -->
<svg version="1.1" id="svg_x5F_fill_x5F_1" xmlns="http://www.w3.org/2000/svg" xmlns:xlink="http://www.w3.org/1999/xlink" x="0px"
	 y="0px" viewBox="0 0 840 840" style="enable-background:new 0 0 840 840;" xml:space="preserve">
<style type="text/css">
	.st0{fill:#FF0000;}
	.st1{fill:none;}
	.st2{clip-path:url(#SVGID_2_);}
	.st3{fill:#FFFFFF;}
	.st4{clip-path:url(#SVGID_4_);}
	.st5{clip-path:url(#SVGID_6_);}
	.st6{clip-path:url(#SVGID_8_);}
	.st7{clip-path:url(#SVGID_10_);}
	.st8{clip-path:url(#SVGID_12_);}
	.st9{fill-rule:evenodd;clip-rule:evenodd;fill:#FF0000;}
	.st10{clip-path:url(#SVGID_14_);fill-rule:evenodd;clip-rule:evenodd;fill:#FFFFFF;}
	.st11{clip-path:url(#SVGID_16_);fill:#FFFFFF;}
</style>
<g>
	<path class="st3" d="M420,0C188,0,0,188,0,420s188,420,420,420s420-188,420-420S652,0,420,0z M540,680c0,66.3-53.7,120-120,120
		s-120-53.7-120-120l240-20V680z M540,640l-240,20v-20l240-20V640z M540,600l-240,20v-20l240-20V600z M563.9,472.1
		C548.8,483.4,540,501.2,540,520v40l-240,20v-60c0-18.8-8.8-36.6-23.9-47.9C217.7,428.3,180,358.6,180,280
		c0-132.5,107.5-240,240-240h0c132.5,0,240,107.5,240,240C660,358.6,622.3,428.3,563.9,472.1z"/>
	<path class="st3" d="M420,80c-110,0-198.9,88-200,197.9c-0.7,71.4,36,134.3,91.7,170.3C329.3,459.5,340,479,340,500
		c0,11,9,20,20,20h40V418c-45.6-9.3-80-49.6-80-98c0-11,9-20,20-20s20,9,20,20c0,33.1,26.9,60,60,60s60-26.9,60-60c0-11,9-20,20-20
		s20,9,20,20c0,48.4-34.4,88.7-80,98v102h40c11,0,20-9,20-20v-0.2c0-21,10.8-40.3,28.5-51.7c55.1-35.6,91.5-97.6,91.5-168
		C620,169.5,530.5,80,420,80z"/>
</g>
</svg>
