<?xml version="1.0" encoding="utf-8"?>
<!-- Generator: Adobe Illustrator 23.0.2, SVG Export Plug-In . SVG Version: 6.00 Build 0)  -->
<svg version="1.1" id="svg_x5F_fill_x5F_1" xmlns="http://www.w3.org/2000/svg" xmlns:xlink="http://www.w3.org/1999/xlink" x="0px"
	 y="0px" viewBox="0 0 4540 760" style="enable-background:new 0 0 4540 760;" xml:space="preserve">
<style type="text/css">
	.st0{fill:#FF0000;}
	.st1{fill:none;}
	.st2{clip-path:url(#SVGID_2_);}
	.st3{fill:#FFFFFF;}
	.st4{clip-path:url(#SVGID_4_);}
	.st5{clip-path:url(#SVGID_6_);}
	.st6{clip-path:url(#SVGID_8_);}
	.st7{clip-path:url(#SVGID_10_);}
	.st8{fill-rule:evenodd;clip-rule:evenodd;fill:#FF0000;}
	.st9{clip-path:url(#SVGID_12_);fill-rule:evenodd;clip-rule:evenodd;fill:#FFFFFF;}
	.st10{clip-path:url(#SVGID_14_);fill:#FFFFFF;}
	.st11{clip-path:url(#SVGID_16_);}
	.st12{clip-path:url(#SVGID_16_);fill:#FFFFFF;}
	.st13{clip-path:url(#SVGID_18_);fill:#FFFFFF;}
</style>
<g>
	<defs>
		<rect id="SVGID_15_" width="4540" height="760"/>
	</defs>
	<clipPath id="SVGID_2_">
		<use xlink:href="#SVGID_15_"  style="overflow:visible;"/>
	</clipPath>
	<g class="st2">
		<path class="st3" d="M2472.4,414.1c-7.8-7.8-20.5-7.8-28.3,0l-11.7,11.7c-7.8,7.8-7.8,20.5,0,28.3l45.9,45.9h-55.1
			c-10.7,0-20.7-4.2-28.3-11.7l-65.9-65.9c-7.8-7.8-20.5-7.8-28.3,0l-28.3,28.3c-7.8,7.8-7.8,20.5,0,28.3l65.9,65.9
			c22.5,22.5,53,35.1,84.9,35.1h55.1l-45.9,45.9c-7.8,7.8-7.8,20.5,0,28.3l11.7,11.7c7.8,7.8,20.5,7.8,28.3,0l111.7-111.7
			c7.8-7.8,7.8-20.5,0-28.3L2472.4,414.1z"/>
		<path class="st3" d="M2423.1,260h55.1l-45.9,45.9c-7.8,7.8-7.8,20.5,0,28.3l11.7,11.7c7.8,7.8,20.5,7.8,28.3,0l111.7-111.7
			c7.8-7.8,7.8-20.5,0-28.3L2472.4,94.1c-7.8-7.8-20.5-7.8-28.3,0l-11.7,11.7c-7.8,7.8-7.8,20.5,0,28.3l45.9,45.9h-55.1
			c-32.1,0-62.2,12.5-84.9,35.1l-273.1,273.1c-7.6,7.6-17.6,11.7-28.3,11.7l-46.9,0c-22.1,0-40,17.9-40,40c0,22.1,17.9,40,40,40
			l46.9,0c32.1,0,62.2-12.5,84.9-35.1l273.1-273.1C2402.4,264.2,2412.5,260,2423.1,260z"/>
		<path class="st3" d="M1990,260l46.9,0c10.7,0,20.7,4.2,28.3,11.7l65.9,65.9c7.8,7.8,20.5,7.8,28.3,0l28.3-28.3
			c7.8-7.8,7.8-20.5,0-28.3l-65.9-65.9c-22.7-22.7-52.8-35.1-84.9-35.1l-46.9,0c-22.1,0-40,17.9-40,40
			C1950,242.1,1967.9,260,1990,260z"/>
	</g>
	<g class="st2">
		<path class="st3" d="M2895,495.5h-58l-37.1-66.8c-7.6-13.8-13.9-22.7-18.8-26.7c-4.9-4-10.1-6-15.6-6h-15.3v99.4h-50.4V238.9h82.9
			c56.3,0,84.4,23.2,84.4,69.6c0,17.5-4.7,32.4-14.1,44.9c-9.4,12.5-22.4,21.3-38.9,26.3v0.7c10.9,4,23,17,36.2,39.1L2895,495.5z
			 M2750.3,280.5v73.9h24.7c11.8,0,21.3-3.7,28.5-11.2s10.8-16.8,10.8-27.9c0-23.2-12.8-34.8-38.3-34.8H2750.3z"/>
		<path class="st3" d="M3079.4,419h-111.1c1.7,28.4,17.5,42.6,47.3,42.6c18.6,0,35.1-5,49.3-14.9v39.3
			c-15.4,9.4-35.5,14.1-60.5,14.1c-26.9,0-47.8-8.2-62.7-24.7c-14.9-16.5-22.4-39.4-22.4-68.8c0-29.3,7.9-53,23.8-71.3
			c15.9-18.3,35.8-27.4,59.8-27.4c23.9,0,42.6,7.9,56.1,23.6c13.5,15.7,20.2,37.4,20.2,64.9V419z M3033.5,385.5
			c0-27.4-10.2-41.1-30.7-41.1c-8.4,0-15.9,3.8-22.4,11.3c-6.5,7.5-10.6,17.5-12.2,29.8H3033.5z"/>
		<path class="st3" d="M3243.3,265.6c-6.7-2.9-13.1-4.3-19.1-4.3c-16.9,0-25.3,10.2-25.3,30.5v20.5h38.5v39.9h-38.5v143.3h-49.3
			V352.2h-28.2v-39.9h28.2v-23.5c0-20.9,6.3-37.6,18.8-50c12.5-12.5,29-18.7,49.3-18.7c10.4,0,18.9,1.2,25.6,3.5V265.6z"/>
		<path class="st3" d="M3437.5,419h-111.1c1.7,28.4,17.5,42.6,47.3,42.6c18.6,0,35.1-5,49.3-14.9v39.3
			c-15.4,9.4-35.5,14.1-60.5,14.1c-26.9,0-47.8-8.2-62.7-24.7c-14.9-16.5-22.4-39.4-22.4-68.8c0-29.3,7.9-53,23.8-71.3
			c15.9-18.3,35.8-27.4,59.8-27.4c23.9,0,42.6,7.9,56.1,23.6c13.5,15.7,20.2,37.4,20.2,64.9V419z M3391.6,385.5
			c0-27.4-10.2-41.1-30.7-41.1c-8.4,0-15.9,3.8-22.4,11.3c-6.5,7.5-10.6,17.5-12.2,29.8H3391.6z"/>
		<path class="st3" d="M3601.9,360.8c-6-3.8-13.3-5.6-21.8-5.6c-11.2,0-20.1,4.6-26.6,13.9c-6.6,9.3-9.8,22-9.8,38.3v88.1h-49.3
			V312.3h49.3v34.5h0.6c8.1-25.1,23-37.6,44.4-37.6c5.8,0,10.2,0.7,13.3,2.2V360.8z"/>
		<path class="st3" d="M3799.9,419h-111.1c1.7,28.4,17.5,42.6,47.3,42.6c18.6,0,35.1-5,49.3-14.9v39.3
			c-15.4,9.4-35.5,14.1-60.5,14.1c-26.9,0-47.8-8.2-62.7-24.7c-14.9-16.5-22.4-39.4-22.4-68.8c0-29.3,7.9-53,23.8-71.3
			c15.9-18.3,35.8-27.4,59.8-27.4c23.9,0,42.6,7.9,56.1,23.6c13.5,15.7,20.2,37.4,20.2,64.9V419z M3753.9,385.5
			c0-27.4-10.2-41.1-30.7-41.1c-8.4,0-15.9,3.8-22.4,11.3c-6.5,7.5-10.6,17.5-12.2,29.8H3753.9z"/>
		<path class="st3" d="M4017.1,495.5h-49V393.3c0-29.6-9.8-44.4-29.5-44.4c-9.4,0-17.2,4-23.4,11.8c-6.2,7.9-9.3,18-9.3,30.2v104.5
			h-49.3V312.3h49.3v29.2h0.6c12.3-22.4,30.4-33.6,54.4-33.6c37.5,0,56.2,25.2,56.2,75.6V495.5z"/>
		<path class="st3" d="M4210.5,488.7c-11.8,7.5-28.6,11.3-50.4,11.3c-25.8,0-46.6-8.5-62.4-25.5c-15.9-17-23.8-39-23.8-66.1
			c0-31.1,8.5-55.7,25.6-73.6c17.1-17.9,39.9-26.9,68.4-26.9c19.2,0,33.5,2.9,42.7,8.6v45.9c-11.3-8.9-23.6-13.4-36.9-13.4
			c-15.1,0-27.2,5-36.3,14.9c-9.1,9.9-13.7,23.6-13.7,40.9c0,16.8,4.3,30,13,39.7c8.6,9.7,20.4,14.5,35.3,14.5
			c13.1,0,26-4.5,38.5-13.6V488.7z"/>
		<path class="st3" d="M4420.1,419H4309c1.7,28.4,17.5,42.6,47.3,42.6c18.6,0,35.1-5,49.3-14.9v39.3c-15.4,9.4-35.5,14.1-60.5,14.1
			c-26.9,0-47.8-8.2-62.7-24.7c-14.9-16.5-22.4-39.4-22.4-68.8c0-29.3,7.9-53,23.8-71.3c15.9-18.3,35.8-27.4,59.8-27.4
			c23.9,0,42.6,7.9,56.1,23.6c13.5,15.7,20.2,37.4,20.2,64.9V419z M4374.1,385.5c0-27.4-10.2-41.1-30.7-41.1
			c-8.5,0-15.9,3.8-22.4,11.3c-6.5,7.5-10.6,17.5-12.2,29.8H4374.1z"/>
	</g>
	<g class="st2">
		<path class="st3" d="M315.1,495.5h-58L220,428.8c-7.6-13.8-13.9-22.7-18.8-26.7c-4.9-4-10.1-6-15.6-6h-15.3v99.4H120V238.9h82.9
			c56.3,0,84.4,23.2,84.4,69.6c0,17.5-4.7,32.4-14.1,44.9c-9.4,12.5-22.4,21.3-38.9,26.3v0.7c10.9,4,23,17,36.2,39.1L315.1,495.5z
			 M170.4,280.5v73.9h24.7c11.8,0,21.3-3.7,28.5-11.2c7.2-7.5,10.8-16.8,10.8-27.9c0-23.2-12.8-34.8-38.3-34.8H170.4z"/>
		<path class="st3" d="M337.6,323.4c7.6-4.6,17.8-8.4,30.6-11.3c12.8-2.9,23.7-4.3,32.7-4.3c47.2,0,70.8,25.7,70.8,77v110.7h-46.9
			v-26.7h-0.6c-11.5,20.8-28.3,31.1-50.5,31.1c-16,0-28.8-4.9-38.4-14.8c-9.6-9.9-14.4-23.3-14.4-40.3c0-35.1,19.3-55.6,57.9-61.3
			l46.4-6.8c0-21.3-10.2-32-30.7-32c-20.2,0-39.1,6.6-56.9,19.9V323.4z M393.3,412.5c-17.8,2.5-26.7,11.3-26.7,26.2
			c0,6.9,2.2,12.4,6.5,16.6c4.3,4.2,10.2,6.3,17.5,6.3c10.1,0,18.4-3.9,24.9-11.6c6.5-7.7,9.8-17.3,9.8-28.8V408L393.3,412.5z"/>
		<path class="st3" d="M674.5,495.5h-49V393.3c0-29.6-9.8-44.4-29.5-44.4c-9.4,0-17.2,4-23.4,11.8c-6.2,7.9-9.3,18-9.3,30.2v104.5
			H514V312.3h49.3v29.2h0.6c12.3-22.4,30.4-33.6,54.4-33.6c37.5,0,56.2,25.2,56.2,75.6V495.5z"/>
		<path class="st3" d="M879.5,495.5h-49.2v-25.8h-0.8c-11.9,20.2-29.5,30.3-52.8,30.3c-21.5,0-38.5-8.2-51.2-24.7
			c-12.7-16.5-19-38.9-19-67.3c0-30,7.1-54.3,21.3-72.7c14.2-18.4,32.7-27.6,55.6-27.6c22,0,37.4,8.6,46.1,25.8h0.8V224.3h49.2
			V495.5z M831.1,391.8c0-12.4-3.4-22.6-10.3-30.7c-6.9-8.1-15.4-12.2-25.7-12.2c-12,0-21.5,5.2-28.3,15.5
			c-6.9,10.3-10.3,24.3-10.3,42c0,16.8,3.3,29.7,9.9,38.9c6.6,9.1,15.7,13.7,27.3,13.7c10.9,0,19.8-4.8,26.9-14.4
			c7-9.6,10.5-22.1,10.5-37.4V391.8z"/>
		<path class="st3" d="M914.4,404.7c0-30.2,8.3-53.8,25-71.1c16.6-17.2,39-25.8,67.1-25.8c27.2,0,48.8,8.5,64.7,25.4
			c16,17,24,39.7,24,68.3c0,30-8.2,54-24.6,71.7c-16.4,17.8-38.6,26.7-66.6,26.7c-27.5,0-49.3-8.5-65.4-25.6
			C922.4,457.3,914.4,434.1,914.4,404.7z M964.3,404.1c0,36.6,13.7,54.8,41.2,54.8c26.4,0,39.5-18.8,39.5-56.3
			c0-35.8-13.3-53.7-39.8-53.7c-12.9,0-23,4.8-30.2,14.4C967.9,372.9,964.3,386.5,964.3,404.1z"/>
		<path class="st3" d="M1394.8,495.5h-49.2V391c0-28.1-9.4-42.1-28.2-42.1c-8.8,0-16,4.3-21.8,12.8c-5.8,8.5-8.7,18.9-8.7,31.1
			v102.7h-49.2V389.7c0-27.2-9.3-40.8-27.9-40.8c-9.3,0-16.7,4.1-22.2,12.2c-5.5,8.1-8.3,18.9-8.3,32.2v102.2h-49.3V312.3h49.3v28.7
			h0.6c5.9-10.5,13.7-18.6,23.5-24.4s20-8.7,30.8-8.7c23.7,0,39.9,11.5,48.7,34.6c13-23.1,32-34.6,56.8-34.6
			c36.7,0,55.1,24.6,55.1,73.9V495.5z"/>
		<path class="st3" d="M1432.5,253.1c0-8.2,2.7-14.8,8-20c5.3-5.1,12.2-7.7,20.5-7.7c8.5,0,15.5,2.6,20.8,7.9
			c5.3,5.2,7.9,11.8,7.9,19.8c0,8.1-2.7,14.8-8.1,20.1c-5.4,5.4-12.3,8-20.6,8c-8.2,0-15.1-2.7-20.5-8.1
			C1435.2,267.8,1432.5,261.1,1432.5,253.1z M1436.2,495.5V312.3h49.2v183.2H1436.2z"/>
		<path class="st3" d="M1661.4,495.5h-150.1v-21.7l86.4-121.6h-77.9v-39.9h141.1v25.8l-82.6,117.5h83.1V495.5z"/>
		<path class="st3" d="M1840,419h-111.1c1.7,28.4,17.5,42.6,47.3,42.6c18.6,0,35.1-5,49.3-14.9v39.3c-15.4,9.4-35.5,14.1-60.5,14.1
			c-26.9,0-47.8-8.2-62.7-24.7c-14.9-16.5-22.4-39.4-22.4-68.8c0-29.3,7.9-53,23.8-71.3c15.9-18.3,35.8-27.4,59.8-27.4
			c23.9,0,42.6,7.9,56.1,23.6c13.5,15.7,20.2,37.4,20.2,64.9V419z M1794,385.5c0-27.4-10.2-41.1-30.7-41.1
			c-8.5,0-15.9,3.8-22.4,11.3c-6.5,7.5-10.6,17.5-12.2,29.8H1794z"/>
	</g>
	<path style="clip-path:url(#SVGID_2_);fill:#FFFFFF;" d="M119.6,80h1720.7c21.9,0,39.6,17.8,39.6,39.6v0
		c0,21.9-17.8,39.6-39.6,39.6H119.6c-21.9,0-39.6-17.8-39.6-39.6v0C80,97.8,97.8,80,119.6,80z"/>
	<path style="clip-path:url(#SVGID_2_);fill:#FFFFFF;" d="M119.6,600.7h1720.7c21.9,0,39.6,17.8,39.6,39.6v0
		c0,21.9-17.8,39.6-39.6,39.6H119.6C97.8,680,80,662.2,80,640.4v0C80,618.5,97.8,600.7,119.6,600.7z"/>
	<path style="clip-path:url(#SVGID_2_);fill:#FFFFFF;" d="M2699.6,80h1720.7c21.9,0,39.6,17.8,39.6,39.6v0
		c0,21.9-17.8,39.6-39.6,39.6H2699.6c-21.9,0-39.6-17.8-39.6-39.6v0C2660,97.8,2677.8,80,2699.6,80z"/>
	<path style="clip-path:url(#SVGID_2_);fill:#FFFFFF;" d="M2699.6,600.7h1720.7c21.9,0,39.6,17.8,39.6,39.6v0
		c0,21.9-17.8,39.6-39.6,39.6H2699.6c-21.9,0-39.6-17.8-39.6-39.6v0C2660,618.5,2677.8,600.7,2699.6,600.7z"/>
</g>
</svg>
