<?xml version="1.0" encoding="utf-8"?>
<!-- Generator: Adobe Illustrator 23.0.2, SVG Export Plug-In . SVG Version: 6.00 Build 0)  -->
<svg version="1.1" id="svg_x5F_fill_x5F_1" xmlns="http://www.w3.org/2000/svg" xmlns:xlink="http://www.w3.org/1999/xlink" x="0px"
	 y="0px" viewBox="0 0 640 840" style="enable-background:new 0 0 640 840;" xml:space="preserve">
<style type="text/css">
	.st0{fill:#FF0000;}
	.st1{fill:none;}
	.st2{clip-path:url(#SVGID_2_);}
	.st3{fill:#FFFFFF;}
	.st4{clip-path:url(#SVGID_4_);}
	.st5{clip-path:url(#SVGID_6_);}
	.st6{clip-path:url(#SVGID_8_);}
	.st7{clip-path:url(#SVGID_10_);}
	.st8{clip-path:url(#SVGID_12_);}
	.st9{fill-rule:evenodd;clip-rule:evenodd;fill:#FF0000;}
	.st10{clip-path:url(#SVGID_14_);fill-rule:evenodd;clip-rule:evenodd;fill:#FFFFFF;}
	.st11{clip-path:url(#SVGID_16_);fill:#FFFFFF;}
</style>
<path class="st3" d="M220,0L40-1.6c-22.1,0-40,17.9-40,40v760c0,22.1,17.9,40,40,40l177.7,1.6c231.8,0,421.5-186.8,422.3-418.6
	C640.7,188.8,452.4,0,220,0z M480,460H360v120c0,22.1-17.9,40-40,40l0,0c-22.1,0-40-17.9-40-40V460H160c-22.1,0-40-17.9-40-40l0,0
	c0-22.1,17.9-40,40-40h120V260c0-22.1,17.9-40,40-40l0,0c22.1,0,40,17.9,40,40v120h120c22.1,0,40,17.9,40,40l0,0
	C520,442.1,502.1,460,480,460z"/>
</svg>
