<?xml version="1.0" encoding="utf-8"?>
<!-- Generator: Adobe Illustrator 23.0.2, SVG Export Plug-In . SVG Version: 6.00 Build 0)  -->
<svg version="1.1" id="svg_x5F_fill_x5F_1" xmlns="http://www.w3.org/2000/svg" xmlns:xlink="http://www.w3.org/1999/xlink" x="0px"
	 y="0px" viewBox="0 0 1300 1000" style="enable-background:new 0 0 1300 1000;" xml:space="preserve">
<style type="text/css">
	.st0{fill:#FF0000;}
	.st1{fill:none;}
	.st2{clip-path:url(#SVGID_2_);}
	.st3{clip-path:url(#SVGID_4_);}
	.st4{fill:#FFFFFF;}
	.st5{clip-path:url(#SVGID_6_);}
	.st6{clip-path:url(#SVGID_8_);}
	.st7{clip-path:url(#SVGID_10_);}
	.st8{fill-rule:evenodd;clip-rule:evenodd;fill:#FF0000;}
	.st9{clip-path:url(#SVGID_12_);fill-rule:evenodd;clip-rule:evenodd;fill:#FFFFFF;}
	.st10{clip-path:url(#SVGID_14_);fill:#FFFFFF;}
</style>
<g>
	<defs>
		<rect id="SVGID_9_" width="1300" height="1000"/>
	</defs>
	<clipPath id="SVGID_2_">
		<use xlink:href="#SVGID_9_"  style="overflow:visible;"/>
	</clipPath>
	<g class="st2">
		<path class="st4" d="M546.3,820L546.3,820c8.2,0,15.4-5.2,18-13L771.7,185c4.1-12.3-5-25-18-25h0c-8.2,0-15.4,5.2-18,13L528.3,795
			C524.2,807.3,533.4,820,546.3,820z"/>
		<g>
			<path class="st4" d="M860,260h-93.3l-49.5,148.5c6-0.9,12.3,1,17,5.6L860,540v120c0,11-9,20-20,20H626.7l-13.3,40H860
				c22.1,0,40-17.9,40-40V300C900,277.9,882.1,260,860,260z"/>
		</g>
		<g>
			<path class="st4" d="M546.7,680H460c-11,0-20-9-20-20V520l25.9-25.9c7.8-7.8,20.5-7.8,28.3,0l51.7,51.7c7.8,7.8,20.5,7.8,28.3,0
				L600,520l86.7-260H440c-22.1,0-40,17.9-40,40v380c0,22.1,17.9,40,40,40h93.3L546.7,680z"/>
		</g>
	</g>
</g>
</svg>
