<?xml version="1.0" encoding="utf-8"?>
<!-- Generator: Adobe Illustrator 23.0.2, SVG Export Plug-In . SVG Version: 6.00 Build 0)  -->
<svg version="1.1" id="svg_x5F_fill_x5F_1" xmlns="http://www.w3.org/2000/svg" xmlns:xlink="http://www.w3.org/1999/xlink" x="0px"
	 y="0px" viewBox="0 0 1300 1000" style="enable-background:new 0 0 1300 1000;" xml:space="preserve">
<style type="text/css">
	.st0{fill:#FF0000;}
	.st1{fill:none;}
	.st2{clip-path:url(#SVGID_2_);}
	.st3{clip-path:url(#SVGID_4_);}
	.st4{fill:#FFFFFF;}
	.st5{clip-path:url(#SVGID_6_);}
	.st6{clip-path:url(#SVGID_8_);}
	.st7{clip-path:url(#SVGID_10_);}
	.st8{fill-rule:evenodd;clip-rule:evenodd;fill:#FF0000;}
	.st9{clip-path:url(#SVGID_12_);fill-rule:evenodd;clip-rule:evenodd;fill:#FFFFFF;}
	.st10{clip-path:url(#SVGID_14_);fill:#FFFFFF;}
</style>
<g>
	<defs>
		<rect id="SVGID_7_" width="1300" height="1000"/>
	</defs>
	<clipPath id="SVGID_2_">
		<use xlink:href="#SVGID_7_"  style="overflow:visible;"/>
	</clipPath>
	<g class="st2">
		<path class="st4" d="M852.4,534.1c-7.8-7.8-20.5-7.8-28.3,0l-11.7,11.7c-7.8,7.8-7.8,20.5,0,28.3l45.9,45.9h-55.1
			c-10.7,0-20.7-4.2-28.3-11.7L709,542.4c-7.8-7.8-20.5-7.8-28.3,0l-28.3,28.3c-7.8,7.8-7.8,20.5,0,28.3l65.9,65.9
			c22.5,22.5,53,35.1,84.9,35.1h55.1l-45.9,45.9c-7.8,7.8-7.8,20.5,0,28.3l11.7,11.7c7.8,7.8,20.5,7.8,28.3,0l111.7-111.7
			c7.8-7.8,7.8-20.5,0-28.3L852.4,534.1z"/>
		<path class="st4" d="M803.1,380h55.1l-45.9,45.9c-7.8,7.8-7.8,20.5,0,28.3l11.7,11.7c7.8,7.8,20.5,7.8,28.3,0l111.7-111.7
			c7.8-7.8,7.8-20.5,0-28.3L852.4,214.1c-7.8-7.8-20.5-7.8-28.3,0l-11.7,11.7c-7.8,7.8-7.8,20.5,0,28.3l45.9,45.9h-55.1
			c-32.1,0-62.2,12.5-84.9,35.1L445.1,608.3c-7.6,7.6-17.6,11.7-28.3,11.7l-46.9,0c-22.1,0-40,17.9-40,40c0,22.1,17.9,40,40,40
			l46.9,0c32.1,0,62.2-12.5,84.9-35.1l273.1-273.1C782.4,384.2,792.5,380,803.1,380z"/>
		<path class="st4" d="M370,380l46.9,0c10.7,0,20.7,4.2,28.3,11.7l65.9,65.9c7.8,7.8,20.5,7.8,28.3,0l28.3-28.3
			c7.8-7.8,7.8-20.5,0-28.3l-65.9-65.9c-22.7-22.7-52.8-35.1-84.9-35.1l-46.9,0c-22.1,0-40,17.9-40,40C330,362.1,347.9,380,370,380z
			"/>
	</g>
</g>
</svg>
